<mxfile host="app.diagrams.net" modified="2023-08-02T14:51:05.411Z" agent="Mozilla/5.0 (Windows NT 10.0; Win64; x64) AppleWebKit/537.36 (KHTML, like Gecko) Chrome/115.0.0.0 Safari/537.36" etag="fFYJYsfREs0CoTi5E85P" version="21.6.5" type="github">
  <diagram name="Page-1" id="zSFLg_cwVJ2aGZID6Dxe">
    <mxGraphModel dx="1600" dy="811" grid="1" gridSize="10" guides="1" tooltips="1" connect="1" arrows="1" fold="1" page="1" pageScale="1" pageWidth="850" pageHeight="1100" math="0" shadow="0">
      <root>
        <mxCell id="0" />
        <mxCell id="1" parent="0" />
        <mxCell id="16w4_a7QQfxnr8rlF-E2-72" value="" style="group" vertex="1" connectable="0" parent="1">
          <mxGeometry x="1050" y="30" width="800" height="630" as="geometry" />
        </mxCell>
        <mxCell id="16w4_a7QQfxnr8rlF-E2-46" value="" style="rounded=0;whiteSpace=wrap;html=1;" vertex="1" parent="16w4_a7QQfxnr8rlF-E2-72">
          <mxGeometry width="310" height="630" as="geometry" />
        </mxCell>
        <mxCell id="16w4_a7QQfxnr8rlF-E2-47" value="" style="rounded=0;whiteSpace=wrap;html=1;movable=1;resizable=1;rotatable=1;deletable=1;editable=1;locked=0;connectable=1;" vertex="1" parent="16w4_a7QQfxnr8rlF-E2-72">
          <mxGeometry x="310" width="490" height="630" as="geometry" />
        </mxCell>
        <mxCell id="16w4_a7QQfxnr8rlF-E2-85" style="edgeStyle=orthogonalEdgeStyle;rounded=0;orthogonalLoop=1;jettySize=auto;html=1;exitX=0.5;exitY=1;exitDx=0;exitDy=0;entryX=0.5;entryY=0;entryDx=0;entryDy=0;" edge="1" parent="16w4_a7QQfxnr8rlF-E2-72" source="16w4_a7QQfxnr8rlF-E2-73" target="16w4_a7QQfxnr8rlF-E2-82">
          <mxGeometry relative="1" as="geometry" />
        </mxCell>
        <mxCell id="16w4_a7QQfxnr8rlF-E2-73" value="Notificar al usuario que no hay disponibilidad" style="rounded=0;whiteSpace=wrap;html=1;" vertex="1" parent="16w4_a7QQfxnr8rlF-E2-72">
          <mxGeometry x="350" y="423.44262295081967" width="120" height="61.9672131147541" as="geometry" />
        </mxCell>
        <mxCell id="16w4_a7QQfxnr8rlF-E2-49" value="SISTEMA" style="text;html=1;strokeColor=none;fillColor=none;align=center;verticalAlign=middle;whiteSpace=wrap;rounded=0;" vertex="1" parent="16w4_a7QQfxnr8rlF-E2-72">
          <mxGeometry x="540" y="29.99573770491803" width="60" height="30.98360655737705" as="geometry" />
        </mxCell>
        <mxCell id="16w4_a7QQfxnr8rlF-E2-68" value="Disponibilidad de Habitaciones" style="rounded=0;whiteSpace=wrap;html=1;" vertex="1" parent="16w4_a7QQfxnr8rlF-E2-72">
          <mxGeometry x="580" y="134.2622950819672" width="120" height="61.9672131147541" as="geometry" />
        </mxCell>
        <mxCell id="16w4_a7QQfxnr8rlF-E2-74" style="edgeStyle=orthogonalEdgeStyle;rounded=0;orthogonalLoop=1;jettySize=auto;html=1;exitX=0;exitY=0.5;exitDx=0;exitDy=0;entryX=0.5;entryY=0;entryDx=0;entryDy=0;" edge="1" parent="16w4_a7QQfxnr8rlF-E2-72" source="16w4_a7QQfxnr8rlF-E2-54" target="16w4_a7QQfxnr8rlF-E2-73">
          <mxGeometry relative="1" as="geometry">
            <Array as="points">
              <mxPoint x="618" y="278.8524590163934" />
              <mxPoint x="410" y="278.8524590163934" />
            </Array>
          </mxGeometry>
        </mxCell>
        <mxCell id="16w4_a7QQfxnr8rlF-E2-75" value="NO" style="edgeLabel;html=1;align=center;verticalAlign=middle;resizable=0;points=[];" vertex="1" connectable="0" parent="16w4_a7QQfxnr8rlF-E2-74">
          <mxGeometry x="-0.7523" relative="1" as="geometry">
            <mxPoint y="-1" as="offset" />
          </mxGeometry>
        </mxCell>
        <mxCell id="16w4_a7QQfxnr8rlF-E2-54" value="" style="rhombus;whiteSpace=wrap;html=1;" vertex="1" parent="16w4_a7QQfxnr8rlF-E2-72">
          <mxGeometry x="617.5" y="227.21311475409837" width="45" height="51.63934426229508" as="geometry" />
        </mxCell>
        <mxCell id="16w4_a7QQfxnr8rlF-E2-56" value="Reservar Habitación" style="rounded=0;whiteSpace=wrap;html=1;" vertex="1" parent="16w4_a7QQfxnr8rlF-E2-72">
          <mxGeometry x="585" y="330.4918032786885" width="120" height="61.9672131147541" as="geometry" />
        </mxCell>
        <mxCell id="16w4_a7QQfxnr8rlF-E2-60" value="Generar Comprobante" style="rounded=0;whiteSpace=wrap;html=1;" vertex="1" parent="16w4_a7QQfxnr8rlF-E2-72">
          <mxGeometry x="585" y="433.77049180327873" width="120" height="61.9672131147541" as="geometry" />
        </mxCell>
        <mxCell id="16w4_a7QQfxnr8rlF-E2-84" style="edgeStyle=orthogonalEdgeStyle;rounded=0;orthogonalLoop=1;jettySize=auto;html=1;exitX=0;exitY=0.5;exitDx=0;exitDy=0;entryX=1;entryY=0.5;entryDx=0;entryDy=0;" edge="1" parent="16w4_a7QQfxnr8rlF-E2-72" source="16w4_a7QQfxnr8rlF-E2-62" target="16w4_a7QQfxnr8rlF-E2-82">
          <mxGeometry relative="1" as="geometry" />
        </mxCell>
        <mxCell id="16w4_a7QQfxnr8rlF-E2-62" value="Enviar Notificación" style="rounded=0;whiteSpace=wrap;html=1;" vertex="1" parent="16w4_a7QQfxnr8rlF-E2-72">
          <mxGeometry x="585" y="537.0491803278688" width="120" height="61.9672131147541" as="geometry" />
        </mxCell>
        <mxCell id="16w4_a7QQfxnr8rlF-E2-70" style="edgeStyle=orthogonalEdgeStyle;rounded=0;orthogonalLoop=1;jettySize=auto;html=1;exitX=0.5;exitY=1;exitDx=0;exitDy=0;entryX=0.5;entryY=0;entryDx=0;entryDy=0;" edge="1" parent="16w4_a7QQfxnr8rlF-E2-72" source="16w4_a7QQfxnr8rlF-E2-68" target="16w4_a7QQfxnr8rlF-E2-54">
          <mxGeometry relative="1" as="geometry" />
        </mxCell>
        <mxCell id="16w4_a7QQfxnr8rlF-E2-57" style="edgeStyle=orthogonalEdgeStyle;rounded=0;orthogonalLoop=1;jettySize=auto;html=1;exitX=1;exitY=0.5;exitDx=0;exitDy=0;entryX=0;entryY=0.5;entryDx=0;entryDy=0;" edge="1" parent="16w4_a7QQfxnr8rlF-E2-72" source="16w4_a7QQfxnr8rlF-E2-54" target="16w4_a7QQfxnr8rlF-E2-56">
          <mxGeometry relative="1" as="geometry" />
        </mxCell>
        <mxCell id="16w4_a7QQfxnr8rlF-E2-58" value="SI" style="edgeLabel;html=1;align=center;verticalAlign=middle;resizable=0;points=[];" vertex="1" connectable="0" parent="16w4_a7QQfxnr8rlF-E2-57">
          <mxGeometry x="-0.9206" relative="1" as="geometry">
            <mxPoint as="offset" />
          </mxGeometry>
        </mxCell>
        <mxCell id="16w4_a7QQfxnr8rlF-E2-61" style="edgeStyle=orthogonalEdgeStyle;rounded=0;orthogonalLoop=1;jettySize=auto;html=1;exitX=0.5;exitY=1;exitDx=0;exitDy=0;entryX=0.5;entryY=0;entryDx=0;entryDy=0;" edge="1" parent="16w4_a7QQfxnr8rlF-E2-72" source="16w4_a7QQfxnr8rlF-E2-56" target="16w4_a7QQfxnr8rlF-E2-60">
          <mxGeometry relative="1" as="geometry" />
        </mxCell>
        <mxCell id="16w4_a7QQfxnr8rlF-E2-64" style="edgeStyle=orthogonalEdgeStyle;rounded=0;orthogonalLoop=1;jettySize=auto;html=1;exitX=0.5;exitY=1;exitDx=0;exitDy=0;entryX=0.5;entryY=0;entryDx=0;entryDy=0;" edge="1" parent="16w4_a7QQfxnr8rlF-E2-72" source="16w4_a7QQfxnr8rlF-E2-60" target="16w4_a7QQfxnr8rlF-E2-62">
          <mxGeometry relative="1" as="geometry" />
        </mxCell>
        <mxCell id="16w4_a7QQfxnr8rlF-E2-78" style="edgeStyle=orthogonalEdgeStyle;rounded=0;orthogonalLoop=1;jettySize=auto;html=1;exitX=1;exitY=0.5;exitDx=0;exitDy=0;entryX=0;entryY=0.5;entryDx=0;entryDy=0;" edge="1" parent="16w4_a7QQfxnr8rlF-E2-72" source="16w4_a7QQfxnr8rlF-E2-76" target="16w4_a7QQfxnr8rlF-E2-68">
          <mxGeometry relative="1" as="geometry">
            <Array as="points">
              <mxPoint x="290" y="382.13114754098365" />
              <mxPoint x="290" y="247.8688524590164" />
              <mxPoint x="398" y="247.8688524590164" />
              <mxPoint x="398" y="165.24590163934425" />
            </Array>
          </mxGeometry>
        </mxCell>
        <mxCell id="16w4_a7QQfxnr8rlF-E2-76" value="Preguntar por habitaciones disponibles" style="rounded=0;whiteSpace=wrap;html=1;" vertex="1" parent="16w4_a7QQfxnr8rlF-E2-72">
          <mxGeometry x="95" y="351.1475409836066" width="120" height="61.9672131147541" as="geometry" />
        </mxCell>
        <mxCell id="16w4_a7QQfxnr8rlF-E2-82" value="" style="ellipse;whiteSpace=wrap;html=1;aspect=fixed;" vertex="1" parent="16w4_a7QQfxnr8rlF-E2-72">
          <mxGeometry x="395" y="553.03" width="30" height="30" as="geometry" />
        </mxCell>
        <mxCell id="16w4_a7QQfxnr8rlF-E2-83" value="" style="ellipse;whiteSpace=wrap;html=1;aspect=fixed;" vertex="1" parent="16w4_a7QQfxnr8rlF-E2-72">
          <mxGeometry x="397.5" y="555.53" width="25" height="25" as="geometry" />
        </mxCell>
        <mxCell id="16w4_a7QQfxnr8rlF-E2-48" value="USUARIO" style="text;html=1;strokeColor=none;fillColor=none;align=center;verticalAlign=middle;whiteSpace=wrap;rounded=0;" vertex="1" parent="16w4_a7QQfxnr8rlF-E2-72">
          <mxGeometry x="125" y="30" width="60" height="30" as="geometry" />
        </mxCell>
        <mxCell id="16w4_a7QQfxnr8rlF-E2-51" value="Ingresar con su perfil a pagina web del Hotel" style="rounded=0;whiteSpace=wrap;html=1;" vertex="1" parent="16w4_a7QQfxnr8rlF-E2-72">
          <mxGeometry x="95" y="150" width="120" height="60" as="geometry" />
        </mxCell>
        <mxCell id="16w4_a7QQfxnr8rlF-E2-52" value="Ver habitaciones disponibles" style="rounded=0;whiteSpace=wrap;html=1;" vertex="1" parent="16w4_a7QQfxnr8rlF-E2-72">
          <mxGeometry x="95" y="250" width="120" height="60" as="geometry" />
        </mxCell>
        <mxCell id="16w4_a7QQfxnr8rlF-E2-53" style="edgeStyle=orthogonalEdgeStyle;rounded=0;orthogonalLoop=1;jettySize=auto;html=1;exitX=0.5;exitY=1;exitDx=0;exitDy=0;entryX=0.5;entryY=0;entryDx=0;entryDy=0;" edge="1" parent="16w4_a7QQfxnr8rlF-E2-72" source="16w4_a7QQfxnr8rlF-E2-51" target="16w4_a7QQfxnr8rlF-E2-52">
          <mxGeometry relative="1" as="geometry" />
        </mxCell>
        <mxCell id="16w4_a7QQfxnr8rlF-E2-77" style="edgeStyle=orthogonalEdgeStyle;rounded=0;orthogonalLoop=1;jettySize=auto;html=1;exitX=0.5;exitY=1;exitDx=0;exitDy=0;entryX=0.5;entryY=0;entryDx=0;entryDy=0;" edge="1" parent="16w4_a7QQfxnr8rlF-E2-72" source="16w4_a7QQfxnr8rlF-E2-52" target="16w4_a7QQfxnr8rlF-E2-76">
          <mxGeometry relative="1" as="geometry" />
        </mxCell>
        <mxCell id="16w4_a7QQfxnr8rlF-E2-50" value="" style="ellipse;whiteSpace=wrap;html=1;aspect=fixed;" vertex="1" parent="16w4_a7QQfxnr8rlF-E2-72">
          <mxGeometry x="140" y="80" width="30" height="30" as="geometry" />
        </mxCell>
        <mxCell id="16w4_a7QQfxnr8rlF-E2-65" style="edgeStyle=orthogonalEdgeStyle;rounded=0;orthogonalLoop=1;jettySize=auto;html=1;exitX=0.5;exitY=1;exitDx=0;exitDy=0;entryX=0.5;entryY=0;entryDx=0;entryDy=0;" edge="1" parent="16w4_a7QQfxnr8rlF-E2-72" source="16w4_a7QQfxnr8rlF-E2-50" target="16w4_a7QQfxnr8rlF-E2-51">
          <mxGeometry relative="1" as="geometry" />
        </mxCell>
        <mxCell id="16w4_a7QQfxnr8rlF-E2-1" value="Sistema en Línea de Hotelería y Turismo&amp;nbsp;&lt;br/&gt;" style="swimlane;whiteSpace=wrap;html=1;" vertex="1" parent="1">
          <mxGeometry x="260" y="60" width="580" height="600" as="geometry" />
        </mxCell>
        <mxCell id="16w4_a7QQfxnr8rlF-E2-6" value="Reservar Hotel " style="ellipse;whiteSpace=wrap;html=1;" vertex="1" parent="16w4_a7QQfxnr8rlF-E2-1">
          <mxGeometry x="90" y="120" width="190" height="40" as="geometry" />
        </mxCell>
        <mxCell id="16w4_a7QQfxnr8rlF-E2-8" value="Ver Ofertas Promocionales" style="ellipse;whiteSpace=wrap;html=1;" vertex="1" parent="16w4_a7QQfxnr8rlF-E2-1">
          <mxGeometry x="90" y="180" width="190" height="40" as="geometry" />
        </mxCell>
        <mxCell id="16w4_a7QQfxnr8rlF-E2-10" value="Reservar Atracciones/Recorridos" style="ellipse;whiteSpace=wrap;html=1;" vertex="1" parent="16w4_a7QQfxnr8rlF-E2-1">
          <mxGeometry x="90" y="240" width="190" height="40" as="geometry" />
        </mxCell>
        <mxCell id="16w4_a7QQfxnr8rlF-E2-12" value="Pagar en Línea " style="ellipse;whiteSpace=wrap;html=1;" vertex="1" parent="16w4_a7QQfxnr8rlF-E2-1">
          <mxGeometry x="95" y="290" width="190" height="40" as="geometry" />
        </mxCell>
        <mxCell id="16w4_a7QQfxnr8rlF-E2-18" value="Ver Historial de Transacciones" style="ellipse;whiteSpace=wrap;html=1;" vertex="1" parent="16w4_a7QQfxnr8rlF-E2-1">
          <mxGeometry x="95" y="350" width="190" height="40" as="geometry" />
        </mxCell>
        <mxCell id="16w4_a7QQfxnr8rlF-E2-19" value="Actualizar Perfil " style="ellipse;whiteSpace=wrap;html=1;" vertex="1" parent="16w4_a7QQfxnr8rlF-E2-1">
          <mxGeometry x="90" y="410" width="190" height="40" as="geometry" />
        </mxCell>
        <mxCell id="16w4_a7QQfxnr8rlF-E2-20" value="Recibir Notificaciones" style="ellipse;whiteSpace=wrap;html=1;" vertex="1" parent="16w4_a7QQfxnr8rlF-E2-1">
          <mxGeometry x="90" y="470" width="190" height="40" as="geometry" />
        </mxCell>
        <mxCell id="16w4_a7QQfxnr8rlF-E2-21" value=" Imprimir Comprobantes" style="ellipse;whiteSpace=wrap;html=1;" vertex="1" parent="16w4_a7QQfxnr8rlF-E2-1">
          <mxGeometry x="90" y="530" width="190" height="40" as="geometry" />
        </mxCell>
        <mxCell id="16w4_a7QQfxnr8rlF-E2-5" value="Autenticación y Registro de Usuarios" style="ellipse;whiteSpace=wrap;html=1;" vertex="1" parent="16w4_a7QQfxnr8rlF-E2-1">
          <mxGeometry x="330" y="70" width="190" height="40" as="geometry" />
        </mxCell>
        <mxCell id="16w4_a7QQfxnr8rlF-E2-34" value="Gestionar Transacciones" style="ellipse;whiteSpace=wrap;html=1;" vertex="1" parent="16w4_a7QQfxnr8rlF-E2-1">
          <mxGeometry x="330" y="160" width="190" height="40" as="geometry" />
        </mxCell>
        <mxCell id="16w4_a7QQfxnr8rlF-E2-35" value="Generar Comprobantes" style="ellipse;whiteSpace=wrap;html=1;" vertex="1" parent="16w4_a7QQfxnr8rlF-E2-1">
          <mxGeometry x="330" y="260" width="190" height="40" as="geometry" />
        </mxCell>
        <mxCell id="16w4_a7QQfxnr8rlF-E2-36" value="Enviar Notificaciones" style="ellipse;whiteSpace=wrap;html=1;" vertex="1" parent="16w4_a7QQfxnr8rlF-E2-1">
          <mxGeometry x="330" y="360" width="190" height="40" as="geometry" />
        </mxCell>
        <mxCell id="16w4_a7QQfxnr8rlF-E2-37" value="Integración con Compañías de Tarjetas de Crédito/Débito" style="ellipse;whiteSpace=wrap;html=1;" vertex="1" parent="16w4_a7QQfxnr8rlF-E2-1">
          <mxGeometry x="330" y="460" width="190" height="40" as="geometry" />
        </mxCell>
        <mxCell id="16w4_a7QQfxnr8rlF-E2-39" value="Mantenimiento del Sistema" style="ellipse;whiteSpace=wrap;html=1;" vertex="1" parent="16w4_a7QQfxnr8rlF-E2-1">
          <mxGeometry x="330" y="550" width="190" height="40" as="geometry" />
        </mxCell>
        <mxCell id="16w4_a7QQfxnr8rlF-E2-24" style="edgeStyle=orthogonalEdgeStyle;rounded=0;orthogonalLoop=1;jettySize=auto;html=1;exitX=0.5;exitY=0.5;exitDx=0;exitDy=0;exitPerimeter=0;entryX=0;entryY=0.5;entryDx=0;entryDy=0;" edge="1" parent="1" source="16w4_a7QQfxnr8rlF-E2-2" target="16w4_a7QQfxnr8rlF-E2-6">
          <mxGeometry relative="1" as="geometry" />
        </mxCell>
        <mxCell id="16w4_a7QQfxnr8rlF-E2-25" style="edgeStyle=orthogonalEdgeStyle;rounded=0;orthogonalLoop=1;jettySize=auto;html=1;exitX=0.5;exitY=0.5;exitDx=0;exitDy=0;exitPerimeter=0;entryX=0;entryY=0.5;entryDx=0;entryDy=0;" edge="1" parent="1" source="16w4_a7QQfxnr8rlF-E2-2" target="16w4_a7QQfxnr8rlF-E2-8">
          <mxGeometry relative="1" as="geometry" />
        </mxCell>
        <mxCell id="16w4_a7QQfxnr8rlF-E2-26" style="edgeStyle=orthogonalEdgeStyle;rounded=0;orthogonalLoop=1;jettySize=auto;html=1;exitX=0.5;exitY=0.5;exitDx=0;exitDy=0;exitPerimeter=0;entryX=0;entryY=0.5;entryDx=0;entryDy=0;" edge="1" parent="1" source="16w4_a7QQfxnr8rlF-E2-2" target="16w4_a7QQfxnr8rlF-E2-10">
          <mxGeometry relative="1" as="geometry" />
        </mxCell>
        <mxCell id="16w4_a7QQfxnr8rlF-E2-27" style="edgeStyle=orthogonalEdgeStyle;rounded=0;orthogonalLoop=1;jettySize=auto;html=1;exitX=0.5;exitY=0.5;exitDx=0;exitDy=0;exitPerimeter=0;entryX=0;entryY=0.5;entryDx=0;entryDy=0;" edge="1" parent="1" source="16w4_a7QQfxnr8rlF-E2-2" target="16w4_a7QQfxnr8rlF-E2-12">
          <mxGeometry relative="1" as="geometry" />
        </mxCell>
        <mxCell id="16w4_a7QQfxnr8rlF-E2-28" style="edgeStyle=orthogonalEdgeStyle;rounded=0;orthogonalLoop=1;jettySize=auto;html=1;exitX=0.5;exitY=0.5;exitDx=0;exitDy=0;exitPerimeter=0;entryX=0;entryY=0.5;entryDx=0;entryDy=0;" edge="1" parent="1" source="16w4_a7QQfxnr8rlF-E2-2" target="16w4_a7QQfxnr8rlF-E2-18">
          <mxGeometry relative="1" as="geometry" />
        </mxCell>
        <mxCell id="16w4_a7QQfxnr8rlF-E2-29" style="edgeStyle=orthogonalEdgeStyle;rounded=0;orthogonalLoop=1;jettySize=auto;html=1;exitX=0.5;exitY=0.5;exitDx=0;exitDy=0;exitPerimeter=0;entryX=0;entryY=0.5;entryDx=0;entryDy=0;" edge="1" parent="1" source="16w4_a7QQfxnr8rlF-E2-2" target="16w4_a7QQfxnr8rlF-E2-19">
          <mxGeometry relative="1" as="geometry" />
        </mxCell>
        <mxCell id="16w4_a7QQfxnr8rlF-E2-30" style="edgeStyle=orthogonalEdgeStyle;rounded=0;orthogonalLoop=1;jettySize=auto;html=1;exitX=0.5;exitY=0.5;exitDx=0;exitDy=0;exitPerimeter=0;entryX=0;entryY=0.5;entryDx=0;entryDy=0;" edge="1" parent="1" source="16w4_a7QQfxnr8rlF-E2-2" target="16w4_a7QQfxnr8rlF-E2-20">
          <mxGeometry relative="1" as="geometry" />
        </mxCell>
        <mxCell id="16w4_a7QQfxnr8rlF-E2-31" style="edgeStyle=orthogonalEdgeStyle;rounded=0;orthogonalLoop=1;jettySize=auto;html=1;exitX=0.5;exitY=0.5;exitDx=0;exitDy=0;exitPerimeter=0;entryX=0;entryY=0.5;entryDx=0;entryDy=0;" edge="1" parent="1" source="16w4_a7QQfxnr8rlF-E2-2" target="16w4_a7QQfxnr8rlF-E2-21">
          <mxGeometry relative="1" as="geometry" />
        </mxCell>
        <mxCell id="16w4_a7QQfxnr8rlF-E2-33" style="edgeStyle=orthogonalEdgeStyle;rounded=0;orthogonalLoop=1;jettySize=auto;html=1;exitX=0.5;exitY=0.5;exitDx=0;exitDy=0;exitPerimeter=0;entryX=0;entryY=0.5;entryDx=0;entryDy=0;" edge="1" parent="1" source="16w4_a7QQfxnr8rlF-E2-2" target="16w4_a7QQfxnr8rlF-E2-32">
          <mxGeometry relative="1" as="geometry" />
        </mxCell>
        <mxCell id="16w4_a7QQfxnr8rlF-E2-2" value="Usuario de Hoteleria" style="shape=umlActor;verticalLabelPosition=bottom;verticalAlign=top;html=1;outlineConnect=0;" vertex="1" parent="1">
          <mxGeometry x="150" y="290" width="30" height="60" as="geometry" />
        </mxCell>
        <mxCell id="16w4_a7QQfxnr8rlF-E2-32" value="Ver Hoteles Disponibles" style="ellipse;whiteSpace=wrap;html=1;" vertex="1" parent="1">
          <mxGeometry x="360" y="130" width="190" height="40" as="geometry" />
        </mxCell>
        <mxCell id="16w4_a7QQfxnr8rlF-E2-40" style="edgeStyle=orthogonalEdgeStyle;rounded=0;orthogonalLoop=1;jettySize=auto;html=1;exitX=0.5;exitY=0.5;exitDx=0;exitDy=0;exitPerimeter=0;entryX=1;entryY=0.5;entryDx=0;entryDy=0;" edge="1" parent="1" source="16w4_a7QQfxnr8rlF-E2-38" target="16w4_a7QQfxnr8rlF-E2-5">
          <mxGeometry relative="1" as="geometry" />
        </mxCell>
        <mxCell id="16w4_a7QQfxnr8rlF-E2-41" style="edgeStyle=orthogonalEdgeStyle;rounded=0;orthogonalLoop=1;jettySize=auto;html=1;exitX=0.5;exitY=0.5;exitDx=0;exitDy=0;exitPerimeter=0;entryX=1;entryY=0.5;entryDx=0;entryDy=0;" edge="1" parent="1" source="16w4_a7QQfxnr8rlF-E2-38" target="16w4_a7QQfxnr8rlF-E2-34">
          <mxGeometry relative="1" as="geometry" />
        </mxCell>
        <mxCell id="16w4_a7QQfxnr8rlF-E2-42" style="edgeStyle=orthogonalEdgeStyle;rounded=0;orthogonalLoop=1;jettySize=auto;html=1;exitX=0.5;exitY=0.5;exitDx=0;exitDy=0;exitPerimeter=0;entryX=1;entryY=0.5;entryDx=0;entryDy=0;" edge="1" parent="1" source="16w4_a7QQfxnr8rlF-E2-38" target="16w4_a7QQfxnr8rlF-E2-35">
          <mxGeometry relative="1" as="geometry" />
        </mxCell>
        <mxCell id="16w4_a7QQfxnr8rlF-E2-43" style="edgeStyle=orthogonalEdgeStyle;rounded=0;orthogonalLoop=1;jettySize=auto;html=1;exitX=0.5;exitY=0.5;exitDx=0;exitDy=0;exitPerimeter=0;entryX=1;entryY=0.5;entryDx=0;entryDy=0;" edge="1" parent="1" source="16w4_a7QQfxnr8rlF-E2-38" target="16w4_a7QQfxnr8rlF-E2-36">
          <mxGeometry relative="1" as="geometry" />
        </mxCell>
        <mxCell id="16w4_a7QQfxnr8rlF-E2-44" style="edgeStyle=orthogonalEdgeStyle;rounded=0;orthogonalLoop=1;jettySize=auto;html=1;exitX=0.5;exitY=0.5;exitDx=0;exitDy=0;exitPerimeter=0;entryX=1;entryY=0.5;entryDx=0;entryDy=0;" edge="1" parent="1" source="16w4_a7QQfxnr8rlF-E2-38" target="16w4_a7QQfxnr8rlF-E2-37">
          <mxGeometry relative="1" as="geometry" />
        </mxCell>
        <mxCell id="16w4_a7QQfxnr8rlF-E2-45" style="edgeStyle=orthogonalEdgeStyle;rounded=0;orthogonalLoop=1;jettySize=auto;html=1;exitX=0.5;exitY=0.5;exitDx=0;exitDy=0;exitPerimeter=0;entryX=1;entryY=0.5;entryDx=0;entryDy=0;" edge="1" parent="1" source="16w4_a7QQfxnr8rlF-E2-38" target="16w4_a7QQfxnr8rlF-E2-39">
          <mxGeometry relative="1" as="geometry" />
        </mxCell>
        <mxCell id="16w4_a7QQfxnr8rlF-E2-38" value="Sistema" style="shape=umlActor;verticalLabelPosition=bottom;verticalAlign=top;html=1;outlineConnect=0;" vertex="1" parent="1">
          <mxGeometry x="920" y="290" width="30" height="60" as="geometry" />
        </mxCell>
        <mxCell id="16w4_a7QQfxnr8rlF-E2-66" value="Se considera que el usuario ya esta registrado*" style="text;html=1;strokeColor=none;fillColor=none;align=center;verticalAlign=middle;whiteSpace=wrap;rounded=0;" vertex="1" parent="1">
          <mxGeometry x="1080" y="620" width="145" height="30" as="geometry" />
        </mxCell>
      </root>
    </mxGraphModel>
  </diagram>
</mxfile>
